# Blender v2.79 (sub 0) OBJ File: 'lanter.blend'
# www.blender.org
mtllib lanter.mtl
o Cone
v 0.000141 -0.035576 -4.092038
v 0.000141 0.034012 -4.317681
v 0.000122 5.107446 -0.000004
v 0.000160 5.263026 0.000004
v 4.092183 -0.035576 -0.000762
v 4.317818 0.034012 0.000762
v 0.000141 -0.035576 4.092038
v 0.000141 0.034012 4.317681
v -4.091897 -0.035576 -0.000004
v -4.317541 0.034012 0.000004
v 0.000141 -0.003835 4.078922
v 0.000141 0.005049 4.330798
v 0.000141 -5.107620 -0.000000
v 0.000141 -5.263200 -0.000000
v 4.079059 -0.003768 0.000350
v 4.330942 0.004983 -0.000350
v 0.000141 -0.003839 -4.078922
v 0.000141 0.005054 -4.330797
v -4.078781 -0.003837 -0.000007
v -4.330657 0.005052 0.000008
v 1.951199 0.000605 -2.075410
v 2.129591 0.000610 -2.253801
v 2.050316 0.000531 1.976290
v 2.228992 0.000683 2.154404
v -2.015902 0.000605 2.010426
v -2.194293 0.000610 2.188818
v -1.987378 0.000605 -2.038950
v -2.165769 0.000610 -2.217341
v -3.019925 0.000603 1.006399
v -3.198347 0.000612 1.184767
v -0.917206 0.000603 3.109118
v -1.095574 0.000612 3.287540
v 0.834205 0.000600 3.192405
v 1.012565 0.000614 3.370827
v -3.182203 0.000600 -0.844125
v -3.360625 0.000615 -1.022485
v 3.074938 0.000603 -0.951667
v 3.253360 0.000612 -1.130035
v 3.425964 -0.009704 0.592043
v 3.604008 -0.010293 0.770788
v 0.896757 0.000601 -3.129848
v 1.075125 0.000615 -3.308270
v -0.816872 0.000601 -3.209456
v -0.995232 0.000615 -3.387878
v -4.267787 0.055609 0.063087
v -4.233701 -0.076491 -0.000014
v -0.050940 5.114222 -0.006506
v -3.305583 0.056995 -0.853404
v -4.267796 0.055617 -0.063059
v -3.144396 0.056405 1.015070
v -0.049949 5.113998 0.007677
v -4.233701 -0.076491 -0.000014
v 0.000130 -0.076493 4.233829
v -0.062916 0.055612 4.267951
v 0.843522 0.057031 3.315717
v 0.006575 5.114236 0.051141
v 0.000151 -0.076490 -4.233849
v 0.007025 5.114149 -0.050762
v 0.905841 0.056806 -3.253581
v -0.062946 0.055613 -4.267921
v 0.055117 -0.042276 4.115113
v 0.006573 -5.114409 0.051136
v 0.843527 -0.055817 3.315725
v 4.115254 -0.042276 -0.054976
v 0.050562 -5.114246 -0.007280
v 3.199048 -0.055391 -0.960548
v -0.054836 -0.042276 -4.115113
v -0.006169 -5.114433 -0.051240
v -0.826259 -0.055878 -3.332661
v -4.114972 -0.042276 0.054977
v -0.049944 -5.114172 0.007675
v -3.144403 -0.055191 1.015074
v 1.956506 -0.051508 -2.206239
v 0.021504 -5.112383 -0.037849
v 1.035187 -0.046516 -3.131605
v 2.082853 0.052210 -2.080297
v 0.036781 5.112122 -0.022657
v 3.076837 0.047966 -1.089754
v 2.181061 -0.051646 1.981572
v 0.039796 -5.112542 0.019427
v 3.426608 -0.055544 0.732865
v 0.052633 5.114560 0.004701
v 3.547734 0.047856 0.603708
v 4.267902 0.056099 -0.062118
v 4.233983 -0.076491 0.000000
v -2.020991 -0.051241 2.141689
v -0.021839 -5.112339 0.037266
v -1.055508 -0.046606 3.110930
v -0.021845 5.112166 0.037275
v -2.020986 0.052454 2.141684
v -1.055505 0.047818 3.110925
v -1.992557 0.052572 -2.170017
v -0.020933 5.112233 -0.038134
v -0.955783 0.047385 -3.210999
v -2.118793 -0.051147 -2.043963
v -0.037454 -5.112363 -0.021632
v -3.183821 -0.046289 -0.982873
v -3.021977 -0.046990 1.144150
v -0.036571 -5.112300 0.022566
v -2.147127 -0.051264 2.015534
v -0.036579 5.112128 0.022572
v -3.021972 0.048202 1.144146
v -2.147122 0.052478 2.015529
v -0.926216 -0.055517 3.232997
v -0.006891 -5.114293 0.050630
v -0.054836 -0.042276 4.115113
v -0.926212 0.056730 3.232990
v 0.063220 0.055606 4.267945
v 0.000130 -0.076493 4.233829
v -0.006893 5.114120 0.050636
v 0.973014 -0.046246 3.193997
v 0.021785 -5.112362 0.037584
v 2.055434 -0.051100 2.107642
v 3.199041 0.056606 -0.960544
v 0.050567 5.114073 -0.007281
v 4.233983 -0.076491 0.000000
v 4.268074 0.055613 0.063073
v 3.548315 -0.066837 0.602001
v 0.052711 -5.114757 0.004716
v 4.115521 -0.042834 0.054257
v 0.021790 5.112190 0.037593
v 0.973012 0.047458 3.193992
v 2.055429 0.052313 2.107637
v 3.427269 0.036160 0.732558
v 0.039719 5.112350 0.019414
v 2.181403 0.052321 1.980865
v 3.076842 -0.046754 -1.089757
v 0.036772 -5.112295 -0.022652
v 2.082857 -0.050996 -2.080302
v 1.035184 0.047729 -3.131600
v 0.021509 5.112211 -0.037857
v 1.956501 0.052721 -2.206234
v 0.905845 -0.055591 -3.253588
v 0.007023 -5.114322 -0.050757
v 0.055117 -0.042276 -4.115113
v -3.305590 -0.055781 -0.853409
v -0.050934 -5.114395 -0.006505
v -4.114972 -0.042276 -0.054976
v -0.826254 0.057093 -3.332654
v -0.006170 5.114260 -0.051244
v 0.000151 -0.076490 -4.233849
v 0.063205 0.055619 -4.267929
v -3.183816 0.047502 -0.982870
v -0.037463 5.112191 -0.021637
v -2.118788 0.052360 -2.043958
v -0.955786 -0.046172 -3.211004
v -0.020927 -5.112405 -0.038125
v -1.992562 -0.051358 -2.170022
vt 0.750000 0.374971
vt 0.749970 0.374837
vt 0.749970 0.374837
vt 0.750000 0.374971
vt 0.750000 0.374971
vt 0.749970 0.374837
vt 0.750000 0.999936
vt 0.750000 0.999936
vt 0.750000 0.999936
vt 0.694517 0.402726
vt 0.694517 0.402726
vt 0.694517 0.402726
vt 0.500000 0.624965
vt 0.434870 0.592384
vt 0.434870 0.592384
vt 0.500000 0.624965
vt 0.500000 0.624965
vt 0.434870 0.592384
vt 0.500000 0.000000
vt 0.500000 0.000000
vt 0.500000 0.000000
vt 0.499970 0.625099
vt 0.499970 0.625099
vt 0.499970 0.625099
vt 0.000030 0.499918
vt 0.000000 0.500052
vt 0.000000 0.500052
vt 0.000030 0.499918
vt 0.000030 0.499918
vt 0.000000 0.500052
vt 0.054885 0.527508
vt 0.054885 0.527508
vt 0.054885 0.527508
vt 0.027781 1.000000
vt 0.027781 1.000000
vt 0.027781 1.000000
vt 0.750000 0.500052
vt 1.000000 0.000000
vt 1.000000 0.000000
vt 0.750000 0.500052
vt 0.750000 0.500052
vt 1.000000 0.000000
vt 0.801963 0.525897
vt 0.801963 0.525897
vt 0.801963 0.525897
vt 0.750030 0.499918
vt 0.750030 0.499918
vt 0.750030 0.499918
vt 0.000000 0.500052
vt 0.250000 0.000000
vt 0.250000 0.000000
vt 0.250000 0.000000
vt 0.054885 0.527508
vt 1.000000 0.624965
vt 0.777789 0.999935
vt 0.777789 0.999935
vt 1.000000 0.624965
vt 1.000000 0.624965
vt 0.777789 0.999935
vt 0.938124 0.594011
vt 0.938124 0.594011
vt 0.938124 0.594011
vt 0.500030 0.500018
vt 0.527794 0.000000
vt 0.527794 0.000000
vt 0.500030 0.500018
vt 0.500030 0.500018
vt 0.527794 0.000000
vt 0.553901 0.473069
vt 0.553901 0.473069
vt 0.553901 0.473069
vt 0.500000 0.624965
vt 0.277792 0.999939
vt 0.277792 0.999939
vt 0.277792 0.999939
vt 0.434870 0.592384
vt 0.871319 0.560593
vt 0.777789 0.999935
vt 0.871319 0.560593
vt 0.871319 0.560593
vt 0.801963 0.525897
vt 0.871319 0.560593
vt 1.000000 0.000000
vt 0.938124 0.594011
vt 0.127190 0.563678
vt 0.250000 0.000000
vt 0.127190 0.563678
vt 0.127190 0.563678
vt 0.209461 0.603556
vt 0.209461 0.603556
vt 0.209461 0.603556
vt 0.027781 1.000000
vt 0.209461 0.603556
vt 0.249970 0.625099
vt 0.249970 0.625099
vt 0.249970 0.625099
vt 0.250000 0.624965
vt 0.250000 0.624965
vt 0.250000 0.624965
vt 0.375182 0.562525
vt 0.277792 0.999939
vt 0.375182 0.562525
vt 0.375182 0.562525
vt 0.309866 0.529851
vt 0.309866 0.529851
vt 0.309866 0.529851
vt 0.500000 0.000000
vt 0.375182 0.562525
vt 0.309866 0.529851
vt 0.623486 0.438259
vt 0.750000 0.999936
vt 0.623486 0.438259
vt 0.623486 0.438259
vt 0.553901 0.473069
vt 0.623486 0.438259
vt 0.527794 0.000000
vt 0.694517 0.402726
vt 0.434870 0.592384
vt 0.277792 0.999939
vt 0.375182 0.562525
vt 0.500000 0.000000
vt 0.434870 0.592384
vt 0.375182 0.562525
vt 0.309866 0.529851
vt 0.277792 0.999939
vt 0.250030 0.499918
vt 0.250030 0.499918
vt 0.250030 0.499918
vt 0.309866 0.529851
vt 0.250030 0.499918
vt 0.250000 0.500052
vt 0.250000 0.500052
vt 0.250000 0.500052
vt 0.500000 0.000000
vt 0.054885 0.527508
vt 0.250000 0.000000
vt 0.127190 0.563678
vt 0.938124 0.594011
vt 1.000000 0.000000
vt 0.999970 0.625099
vt 0.999970 0.625099
vt 0.999970 0.625099
vt 1.000000 0.624965
vt 0.209461 0.603556
vt 0.250000 0.000000
vt 0.249970 0.625099
vt 0.027781 1.000000
vt 0.054885 0.527508
vt 0.127190 0.563678
vt 0.209461 0.603556
vt 0.027781 1.000000
vt 0.127190 0.563678
vt 0.938124 0.594011
vt 0.777789 0.999935
vt 0.871319 0.560593
vt 0.801963 0.525897
vt 1.000000 0.000000
vt 0.871319 0.560593
vt 0.801963 0.525897
vt 0.777789 0.999935
vt 0.750030 0.499918
vt 0.694517 0.402726
vt 0.527794 0.000000
vt 0.750000 0.374971
vt 0.553901 0.473069
vt 0.750000 0.999936
vt 0.500000 0.499884
vt 0.500000 0.499884
vt 0.500000 0.499884
vt 0.500030 0.500018
vt 0.694517 0.402726
vt 0.750000 0.999936
vt 0.623486 0.438259
vt 0.553901 0.473069
vt 0.527794 0.000000
vt 0.623486 0.438259
vn 0.1581 -0.3372 0.9281
vn -0.5100 -0.6066 0.6099
vn 0.0394 -0.0322 -0.9987
vn -0.0274 0.0217 -0.9994
vn -0.1212 -0.0877 0.9887
vn -0.8284 0.4781 0.2919
vn 0.3784 0.8336 0.4023
vn -0.2801 0.9180 -0.2806
vn 0.3766 0.8373 -0.3964
vn -0.2791 0.9186 0.2797
vn -0.1333 -0.1149 -0.9844
vn -0.8446 0.4551 -0.2819
vn 0.0467 -0.0382 0.9982
vn -0.0319 0.0253 0.9992
vn 0.1580 -0.3369 -0.9282
vn -0.5101 -0.6063 -0.6101
vn -0.9282 -0.3369 -0.1581
vn -0.6100 -0.6064 0.5100
vn -0.4026 0.8334 -0.3785
vn 0.2807 0.9180 0.2802
vn -0.9890 -0.0860 0.1206
vn -0.2926 0.4795 0.8273
vn 0.9987 -0.0318 -0.0390
vn 0.9994 0.0213 0.0269
vn 0.9985 -0.0342 0.0419
vn 0.9993 0.0228 -0.0288
vn -0.9874 -0.0964 -0.1252
vn -0.2888 0.4708 -0.8337
vn -0.4002 0.8349 0.3779
vn 0.2803 0.9182 -0.2798
vn -0.9281 -0.3372 0.1581
vn -0.6100 -0.6065 -0.5100
vn 0.8438 0.3328 -0.4210
vn 0.9522 -0.1952 0.2350
vn -0.9890 0.0860 0.1205
vn -0.2925 -0.4795 0.8274
vn -0.3758 -0.8551 -0.3571
vn 0.2416 -0.9358 0.2568
vn -0.4286 0.3391 -0.8374
vn 0.2359 -0.1960 -0.9518
vn 0.1292 0.1057 0.9860
vn 0.8392 -0.4629 0.2854
vn -0.3562 -0.8571 0.3722
vn 0.2551 -0.9362 -0.2419
vn -0.8445 0.3321 0.4201
vn -0.9523 -0.1950 -0.2346
vn 0.9894 0.0832 -0.1192
vn 0.2935 -0.4818 -0.8256
vn 0.3763 -0.8549 0.3571
vn -0.2414 -0.9358 -0.2570
vn 0.4300 0.3402 0.8363
vn -0.2382 -0.1978 0.9509
vn -0.1332 0.1149 -0.9844
vn -0.8447 -0.4550 -0.2819
vn 0.3560 -0.8577 -0.3711
vn -0.2549 -0.9361 0.2424
vn -0.9365 0.2596 -0.2356
vn -0.2514 -0.2958 -0.9216
vn 0.3482 0.4407 0.8274
vn 0.9784 -0.0798 0.1905
vn -0.3216 -0.8916 0.3187
vn 0.2151 -0.9522 -0.2171
vn 0.2457 -0.2806 0.9279
vn 0.9303 0.2747 0.2432
vn -0.8341 -0.4339 -0.3406
vn -0.1909 0.0916 -0.9773
vn -0.3181 0.8922 0.3204
vn 0.2164 0.9524 -0.2148
vn 0.2260 0.2694 -0.9361
vn 0.9247 -0.2959 -0.2395
vn -0.7968 0.4889 0.3552
vn -0.1588 -0.0344 0.9867
vn -0.3192 -0.8945 -0.3130
vn 0.2112 -0.9534 0.2156
vn 0.1089 -0.0421 -0.9932
vn 0.8038 0.5117 -0.3034
vn -0.3805 0.8308 -0.4062
vn 0.2761 0.9153 0.2931
vn -0.1553 -0.3264 -0.9324
vn 0.5063 -0.6051 -0.6144
vn -0.0328 -0.0268 0.9991
vn 0.0166 0.0132 0.9998
vn 0.9321 0.2707 0.2406
vn 0.2468 -0.2849 0.9262
vn -0.3444 0.4384 -0.8301
vn -0.9781 -0.0847 -0.1899
vn 0.3209 -0.8921 -0.3183
vn -0.2149 -0.9523 0.2167
vn 0.9321 -0.2708 0.2405
vn 0.2468 0.2849 0.9262
vn 0.3209 0.8920 -0.3183
vn -0.2149 0.9523 0.2166
vn -0.3445 -0.4385 -0.8301
vn -0.9781 0.0848 -0.1899
vn 0.9345 -0.2676 -0.2347
vn 0.2451 0.2914 -0.9247
vn -0.3496 -0.4540 0.8195
vn -0.9811 0.0684 0.1811
vn 0.3199 0.8928 0.3172
vn -0.2143 0.9525 -0.2162
vn -0.2391 0.2761 0.9309
vn -0.9283 -0.2825 0.2419
vn 0.8229 0.4505 -0.3462
vn 0.1818 -0.0738 -0.9806
vn 0.3170 -0.8930 0.3194
vn -0.2160 -0.9526 -0.2143
vn 0.8390 0.4239 0.3411
vn 0.1990 -0.0986 0.9750
vn -0.2438 0.2680 -0.9321
vn -0.9253 -0.2842 -0.2509
vn 0.3196 -0.8911 -0.3222
vn -0.2174 -0.9520 0.2156
vn 0.8390 -0.4240 0.3410
vn 0.1990 0.0986 0.9750
vn 0.3196 0.8910 -0.3223
vn -0.2173 0.9520 0.2155
vn -0.2439 -0.2680 -0.9320
vn -0.9253 0.2843 -0.2508
vn 0.9869 0.0999 0.1267
vn 0.2875 -0.4677 0.8358
vn -0.8402 0.3364 -0.4253
vn -0.9515 -0.1965 0.2366
vn 0.3734 -0.8564 -0.3566
vn -0.2420 -0.9359 0.2559
vn 0.3994 0.8354 -0.3776
vn -0.2802 0.9183 0.2797
vn 0.9281 -0.3371 -0.1581
vn 0.6098 -0.6066 0.5100
vn -0.9985 -0.0348 -0.0426
vn -0.9993 0.0234 0.0295
vn 0.9869 -0.1000 0.1266
vn 0.2876 0.4678 0.8357
vn 0.3461 0.4522 -0.8220
vn 0.9809 -0.0725 -0.1803
vn -0.9301 0.2780 0.2401
vn -0.2396 -0.2813 0.9292
vn -0.3189 -0.8934 -0.3165
vn 0.2143 -0.9526 0.2160
vn 0.1292 -0.1057 0.9860
vn 0.8392 0.4629 0.2855
vn -0.0396 -0.0324 -0.9987
vn 0.0336 0.0267 -0.9991
vn -0.1586 -0.3423 0.9261
vn 0.5086 -0.6026 0.6149
vn -0.3767 0.8367 0.3976
vn 0.2793 0.9185 -0.2799
vn 0.1009 0.0477 -0.9938
vn 0.8031 -0.5133 -0.3028
vn -0.4014 0.3169 0.8593
vn 0.2297 -0.1910 0.9544
vn -0.3521 -0.8465 -0.3994
vn 0.2634 -0.9367 0.2306
vn 0.3461 -0.4523 -0.8220
vn 0.9809 0.0725 -0.1804
vn -0.3193 0.8931 -0.3169
vn 0.2140 0.9527 0.2156
vn -0.9300 -0.2779 0.2404
vn -0.2398 0.2813 0.9292
vn -0.7967 -0.4867 0.3583
vn -0.1604 0.0331 0.9865
vn 0.2218 -0.2713 -0.9366
vn 0.9248 0.2964 -0.2386
vn -0.3111 0.8953 -0.3188
vn 0.2196 0.9530 0.2088
vn -0.8342 0.4338 -0.3404
vn -0.1909 -0.0916 -0.9773
vn 0.2457 0.2805 0.9279
vn 0.9303 -0.2747 0.2431
vn -0.3181 -0.8923 0.3204
vn 0.2164 -0.9524 -0.2149
vn 0.3482 -0.4408 0.8273
vn 0.9784 0.0797 0.1906
vn -0.9365 -0.2596 -0.2357
vn -0.2514 0.2958 -0.9216
vn -0.3216 0.8916 0.3187
vn 0.2151 0.9522 -0.2170
vn -0.9874 0.0964 -0.1251
vn -0.2887 -0.4707 -0.8337
vn 0.8411 0.3355 0.4242
vn 0.9517 -0.1962 -0.2362
vn -0.3740 -0.8561 0.3567
vn 0.2419 -0.9359 -0.2561
vn -0.1212 0.0877 0.9887
vn -0.8284 -0.4780 0.2919
vn 0.4215 0.3332 -0.8434
vn -0.2352 -0.1954 -0.9521
vn 0.3570 -0.8553 0.3755
vn -0.2567 -0.9358 -0.2416
vn 0.9894 -0.0833 -0.1191
vn 0.2936 0.4819 -0.8256
vn -0.9988 -0.0310 0.0380
vn -0.9994 0.0210 -0.0265
vn 0.9282 -0.3370 0.1581
vn 0.6101 -0.6063 -0.5100
vn 0.4034 0.8330 0.3787
vn -0.2808 0.9179 -0.2803
vn 0.8229 -0.4505 -0.3462
vn 0.1818 0.0738 -0.9806
vn -0.2391 -0.2762 0.9309
vn -0.9283 0.2826 0.2418
vn 0.3170 0.8930 0.3195
vn -0.2159 0.9526 -0.2143
vn -0.3495 0.4539 0.8196
vn -0.9811 -0.0683 0.1811
vn 0.9345 0.2676 -0.2347
vn 0.2451 -0.2913 -0.9247
vn 0.3199 -0.8928 0.3172
vn -0.2144 -0.9525 -0.2162
usemtl red
s off
f 45/1/1 46/2/1 9/3/1 19/4/1
f 46/2/2 45/1/2 20/5/2 10/6/2
f 46/2/3 47/7/3 3/8/3 9/3/3
f 47/7/4 46/2/4 10/6/4 4/9/4
f 47/7/5 48/10/5 35/11/5 3/8/5
f 48/10/6 47/7/6 4/9/6 36/12/6
f 48/10/7 45/1/7 19/4/7 35/11/7
f 45/1/8 48/10/8 36/12/8 20/5/8
f 49/13/9 50/14/9 29/15/9 19/16/9
f 50/14/10 49/13/10 20/17/10 30/18/10
f 50/14/11 51/19/11 3/20/11 29/15/11
f 51/19/12 50/14/12 30/18/12 4/21/12
f 51/19/13 52/22/13 9/23/13 3/20/13
f 52/22/14 51/19/14 4/21/14 10/24/14
f 52/22/15 49/13/15 19/16/15 9/23/15
f 49/13/16 52/22/16 10/24/16 20/17/16
f 53/25/17 54/26/17 11/27/17 7/28/17
f 54/26/18 53/25/18 8/29/18 12/30/18
f 54/26/19 55/31/19 33/32/19 11/27/19
f 55/31/20 54/26/20 12/30/20 34/33/20
f 55/31/21 56/34/21 3/35/21 33/32/21
f 56/34/22 55/31/22 34/33/22 4/36/22
f 56/34/23 53/25/23 7/28/23 3/35/23
f 53/25/24 56/34/24 4/36/24 8/29/24
f 57/37/25 58/38/25 3/39/25 1/40/25
f 58/38/26 57/37/26 2/41/26 4/42/26
f 58/38/27 59/43/27 41/44/27 3/39/27
f 59/43/28 58/38/28 4/42/28 42/45/28
f 59/43/29 60/46/29 17/47/29 41/44/29
f 60/46/30 59/43/30 42/45/30 18/48/30
f 60/46/31 57/37/31 1/40/31 17/47/31
f 57/37/32 60/46/32 18/48/32 2/41/32
f 61/49/33 62/50/33 13/51/33 11/27/33
f 62/50/34 61/49/34 12/30/34 14/52/34
f 62/50/35 63/53/35 33/32/35 13/51/35
f 63/53/36 62/50/36 14/52/36 34/33/36
f 63/53/37 61/49/37 11/27/37 33/32/37
f 61/49/38 63/53/38 34/33/38 12/30/38
f 64/54/39 65/55/39 13/56/39 15/57/39
f 65/55/40 64/54/40 16/58/40 14/59/40
f 65/55/41 66/60/41 37/61/41 13/56/41
f 66/60/42 65/55/42 14/59/42 38/62/42
f 66/60/43 64/54/43 15/57/43 37/61/43
f 64/54/44 66/60/44 38/62/44 16/58/44
f 67/63/45 68/64/45 13/65/45 17/66/45
f 68/64/46 67/63/46 18/67/46 14/68/46
f 68/64/47 69/69/47 43/70/47 13/65/47
f 69/69/48 68/64/48 14/68/48 44/71/48
f 69/69/49 67/63/49 17/66/49 43/70/49
f 67/63/50 69/69/50 44/71/50 18/67/50
f 70/72/51 71/73/51 13/74/51 19/16/51
f 71/73/52 70/72/52 20/17/52 14/75/52
f 71/73/53 72/76/53 29/15/53 13/74/53
f 72/76/54 71/73/54 14/75/54 30/18/54
f 72/76/55 70/72/55 19/16/55 29/15/55
f 70/72/56 72/76/56 30/18/56 20/17/56
f 73/77/57 74/78/57 13/56/57 21/79/57
f 74/78/58 73/77/58 22/80/58 14/59/58
f 74/78/59 75/81/59 41/44/59 13/56/59
f 75/81/60 74/78/60 14/59/60 42/45/60
f 75/81/61 73/77/61 21/79/61 41/44/61
f 73/77/62 75/81/62 42/45/62 22/80/62
f 76/82/63 77/83/63 3/39/63 21/79/63
f 77/83/64 76/82/64 22/80/64 4/42/64
f 77/83/65 78/84/65 37/61/65 3/39/65
f 78/84/66 77/83/66 4/42/66 38/62/66
f 78/84/67 76/82/67 21/79/67 37/61/67
f 76/82/68 78/84/68 38/62/68 22/80/68
f 79/85/69 80/86/69 13/51/69 23/87/69
f 80/86/70 79/85/70 24/88/70 14/52/70
f 80/86/71 81/89/71 39/90/71 13/51/71
f 81/89/72 80/86/72 14/52/72 40/91/72
f 81/89/73 79/85/73 23/87/73 39/90/73
f 79/85/74 81/89/74 40/91/74 24/88/74
f 82/92/75 83/93/75 39/90/75 3/35/75
f 83/93/76 82/92/76 4/36/76 40/91/76
f 83/93/77 84/94/77 15/95/77 39/90/77
f 84/94/78 83/93/78 40/91/78 16/96/78
f 84/94/79 85/97/79 5/98/79 15/95/79
f 85/97/80 84/94/80 16/96/80 6/99/80
f 85/97/81 82/92/81 3/35/81 5/98/81
f 82/92/82 85/97/82 6/99/82 4/36/82
f 86/100/83 87/101/83 13/74/83 25/102/83
f 87/101/84 86/100/84 26/103/84 14/75/84
f 87/101/85 88/104/85 31/105/85 13/74/85
f 88/104/86 87/101/86 14/75/86 32/106/86
f 88/104/87 86/100/87 25/102/87 31/105/87
f 86/100/88 88/104/88 32/106/88 26/103/88
f 89/107/89 90/108/89 25/102/89 3/20/89
f 90/108/90 89/107/90 4/21/90 26/103/90
f 90/108/91 91/109/91 31/105/91 25/102/91
f 91/109/92 90/108/92 26/103/92 32/106/92
f 91/109/93 89/107/93 3/20/93 31/105/93
f 89/107/94 91/109/94 32/106/94 4/21/94
f 92/110/95 93/111/95 3/8/95 27/112/95
f 93/111/96 92/110/96 28/113/96 4/9/96
f 93/111/97 94/114/97 43/70/97 3/8/97
f 94/114/98 93/111/98 4/9/98 44/71/98
f 94/114/99 92/110/99 27/112/99 43/70/99
f 92/110/100 94/114/100 44/71/100 28/113/100
f 95/115/101 96/116/101 13/65/101 27/112/101
f 96/116/102 95/115/102 28/113/102 14/68/102
f 96/116/103 97/117/103 35/11/103 13/65/103
f 97/117/104 96/116/104 14/68/104 36/12/104
f 97/117/105 95/115/105 27/112/105 35/11/105
f 95/115/106 97/117/106 36/12/106 28/113/106
f 98/118/107 99/119/107 13/74/107 29/15/107
f 99/119/108 98/118/108 30/18/108 14/75/108
f 99/119/109 100/120/109 25/102/109 13/74/109
f 100/120/110 99/119/110 14/75/110 26/103/110
f 100/120/111 98/118/111 29/15/111 25/102/111
f 98/118/112 100/120/112 26/103/112 30/18/112
f 101/121/113 102/122/113 29/15/113 3/20/113
f 102/122/114 101/121/114 4/21/114 30/18/114
f 102/122/115 103/123/115 25/102/115 29/15/115
f 103/123/116 102/122/116 30/18/116 26/103/116
f 103/123/117 101/121/117 3/20/117 25/102/117
f 101/121/118 103/123/118 26/103/118 4/21/118
f 104/124/119 105/125/119 13/74/119 31/105/119
f 105/125/120 104/124/120 32/106/120 14/75/120
f 105/125/121 106/126/121 11/127/121 13/74/121
f 106/126/122 105/125/122 14/75/122 12/128/122
f 106/126/123 104/124/123 31/105/123 11/127/123
f 104/124/124 106/126/124 12/128/124 32/106/124
f 107/129/125 108/130/125 11/127/125 31/105/125
f 108/130/126 107/129/126 32/106/126 12/128/126
f 108/130/127 109/131/127 7/132/127 11/127/127
f 109/131/128 108/130/128 12/128/128 8/133/128
f 109/131/129 110/134/129 3/20/129 7/132/129
f 110/134/130 109/131/130 8/133/130 4/21/130
f 110/134/131 107/129/131 31/105/131 3/20/131
f 107/129/132 110/134/132 4/21/132 32/106/132
f 111/135/133 112/136/133 13/51/133 33/32/133
f 112/136/134 111/135/134 34/33/134 14/52/134
f 112/136/135 113/137/135 23/87/135 13/51/135
f 113/137/136 112/136/136 14/52/136 24/88/136
f 113/137/137 111/135/137 33/32/137 23/87/137
f 111/135/138 113/137/138 24/88/138 34/33/138
f 114/138/139 115/139/139 3/39/139 37/61/139
f 115/139/140 114/138/140 38/62/140 4/42/140
f 115/139/141 116/140/141 5/141/141 3/39/141
f 116/140/142 115/139/142 4/42/142 6/142/142
f 116/140/143 117/143/143 15/57/143 5/141/143
f 117/143/144 116/140/144 6/142/144 16/58/144
f 117/143/145 114/138/145 37/61/145 15/57/145
f 114/138/146 117/143/146 16/58/146 38/62/146
f 118/144/147 119/145/147 13/51/147 39/90/147
f 119/145/148 118/144/148 40/91/148 14/52/148
f 119/145/149 120/146/149 15/95/149 13/51/149
f 120/146/150 119/145/150 14/52/150 16/96/150
f 120/146/151 118/144/151 39/90/151 15/95/151
f 118/144/152 120/146/152 16/96/152 40/91/152
f 121/147/153 122/148/153 33/32/153 3/35/153
f 122/148/154 121/147/154 4/36/154 34/33/154
f 122/148/155 123/149/155 23/87/155 33/32/155
f 123/149/156 122/148/156 34/33/156 24/88/156
f 123/149/157 121/147/157 3/35/157 23/87/157
f 121/147/158 123/149/158 24/88/158 4/36/158
f 124/150/159 125/151/159 3/35/159 39/90/159
f 125/151/160 124/150/160 40/91/160 4/36/160
f 125/151/161 126/152/161 23/87/161 3/35/161
f 126/152/162 125/151/162 4/36/162 24/88/162
f 126/152/163 124/150/163 39/90/163 23/87/163
f 124/150/164 126/152/164 24/88/164 40/91/164
f 127/153/165 128/154/165 13/56/165 37/61/165
f 128/154/166 127/153/166 38/62/166 14/59/166
f 128/154/167 129/155/167 21/79/167 13/56/167
f 129/155/168 128/154/168 14/59/168 22/80/168
f 129/155/169 127/153/169 37/61/169 21/79/169
f 127/153/170 129/155/170 22/80/170 38/62/170
f 130/156/171 131/157/171 3/39/171 41/44/171
f 131/157/172 130/156/172 42/45/172 4/42/172
f 131/157/173 132/158/173 21/79/173 3/39/173
f 132/158/174 131/157/174 4/42/174 22/80/174
f 132/158/175 130/156/175 41/44/175 21/79/175
f 130/156/176 132/158/176 22/80/176 42/45/176
f 133/159/177 134/160/177 13/56/177 41/44/177
f 134/160/178 133/159/178 42/45/178 14/59/178
f 134/160/179 135/161/179 17/47/179 13/56/179
f 135/161/180 134/160/180 14/59/180 18/48/180
f 135/161/181 133/159/181 41/44/181 17/47/181
f 133/159/182 135/161/182 18/48/182 42/45/182
f 136/162/183 137/163/183 13/65/183 35/11/183
f 137/163/184 136/162/184 36/12/184 14/68/184
f 137/163/185 138/164/185 19/4/185 13/65/185
f 138/164/186 137/163/186 14/68/186 20/5/186
f 138/164/187 136/162/187 35/11/187 19/4/187
f 136/162/188 138/164/188 20/5/188 36/12/188
f 139/165/189 140/166/189 3/8/189 43/70/189
f 140/166/190 139/165/190 44/71/190 4/9/190
f 140/166/191 141/167/191 1/168/191 3/8/191
f 141/167/192 140/166/192 4/9/192 2/169/192
f 141/167/193 142/170/193 17/66/193 1/168/193
f 142/170/194 141/167/194 2/169/194 18/67/194
f 142/170/195 139/165/195 43/70/195 17/66/195
f 139/165/196 142/170/196 18/67/196 44/71/196
f 143/171/197 144/172/197 3/8/197 35/11/197
f 144/172/198 143/171/198 36/12/198 4/9/198
f 144/172/199 145/173/199 27/112/199 3/8/199
f 145/173/200 144/172/200 4/9/200 28/113/200
f 145/173/201 143/171/201 35/11/201 27/112/201
f 143/171/202 145/173/202 28/113/202 36/12/202
f 146/174/203 147/175/203 13/65/203 43/70/203
f 147/175/204 146/174/204 44/71/204 14/68/204
f 147/175/205 148/176/205 27/112/205 13/65/205
f 148/176/206 147/175/206 14/68/206 28/113/206
f 148/176/207 146/174/207 43/70/207 27/112/207
f 146/174/208 148/176/208 28/113/208 44/71/208
